<svg xmlns="http://www.w3.org/2000/svg" width="91" height="74" viewBox="0 0 91 74">
    <g fill="none" fill-rule="nonzero" opacity=".726">
        <path fill="#5B83D5" d="M41.931 4.256c-1.44 2.106-4.695 6.573-8.475 6.573-3.78 0-7.035-4.467-8.476-6.573 5.15-3.268 11.803-3.268 16.951 0z"/>
        <path fill="#5B83D5" d="M48.176 17.41L33.01 18.952l-2.275-.23-12.892-1.31a15.487 15.487 0 0 1 4.444-10.895 14.57 14.57 0 0 1 2.427-2.004 8.914 8.914 0 0 0 6.02 3.452c.751.138 1.513.205 2.276.2a11.552 11.552 0 0 0 6.173-1.648 6.716 6.716 0 0 0 2.123-2.004c4.288 2.844 6.873 7.696 6.87 12.899zM49.069 32.734l-1.071 12.847-1.623 19.395H19.751l-2.8-33.468 23.58-4.437 4.773-.9z"/>
        <path fill="#87A3DD" d="M43.716 32.736l-1.069 12.847-1.619 19.393H19.745L16.951 31.51l23.528-4.438z"/>
        <path fill="#032354" d="M49.96 23.238l-.674 8.038-.03.316-.106 1.2a35.981 35.981 0 0 0-4.396-1.216 19.085 19.085 0 0 0-3.796-.443 17.125 17.125 0 0 0-2.356.159c-4.516.631-5.296 3-11.148 3a16.162 16.162 0 0 1-2.266-.142c-3.36-.443-4.666-1.848-7.427-2.574l-.105.016-.03-.316-.675-8.038 14.254-1.358 2.25-.221 16.506 1.579z"/>
        <path fill="#87A3DD" d="M43.716 17.595l-12.937 1.356-12.936-1.356c-.005-4.231 1.6-8.29 4.459-11.278a11.32 11.32 0 0 0 6.194 1.707c.766.005 1.53-.065 2.283-.208.753.143 1.517.213 2.283.208a11.32 11.32 0 0 0 6.194-1.707c2.86 2.988 4.464 7.047 4.46 11.278z"/>
        <path fill="#003FA3" d="M45.5 22.957l-.676 7.685-.03.287v.015l-.105 1.148a33.868 33.868 0 0 0-6.056-1.435 17.733 17.733 0 0 0-2.148-.151c-5.92 0-6.656 2.31-11.285 2.884-3.365-.423-4.673-1.766-7.437-2.461l-.106.015-.03-.302-.676-7.685 14.274-1.298L45.5 22.957z"/>
        <path fill="#0D3999" d="M70.48 52.948v.204c-4.076 2.567-9.097 5.18-13.489 4.492-.27-.047-.54-.079-.779-.11a22.616 22.616 0 0 1-6.715-1.455 12.762 12.762 0 0 0-4.436.031 5.543 5.543 0 0 1-1.56-.031.917.917 0 0 1-.389-.188c-1.08-.736-1.334-3.35-2.608-2.943-.764.235-1.544 1.66-2.308 2.52-.187.252-.421.46-.69.61-.854.454-2.083-.125-2.997 0-.285.032-.495-.297-.674-.75a5.435 5.435 0 0 0-.825-1.77v-.61c0-4.322 3.355-7.826 7.494-7.826h22.483c4.138 0 7.493 3.504 7.493 7.826z"/>
        <path fill="#2F70FF" d="M66.02 52.951v.204a29.839 29.839 0 0 1-9.783 4.384 11.075 11.075 0 0 1-3.721.11 27.194 27.194 0 0 1-7.442-1.535c-.016-.016-.046-.016-.06-.031a4.59 4.59 0 0 0-1.891-.188 21.851 21.851 0 0 1-4.112.188 1.409 1.409 0 0 1-.81-.611c-.75-1.002-1.095-2.866-2.19-2.521-.72.22-1.456 1.503-2.176 2.38a5.435 5.435 0 0 0-.825-1.77v-.61c0-4.324 3.358-7.829 7.502-7.829h18.005c4.144 0 7.503 3.505 7.503 7.829z"/>
        <path fill="#131632" d="M70.48 52.271v2.869c0 4.235-3.355 7.67-7.493 7.67l1.498 3.068H37.507l2.997-3.068c-4.14 0-7.494-3.435-7.494-7.67v-2.47a2.591 2.591 0 0 0 1.963.567 8.637 8.637 0 0 0 2.623-1.15 20.357 20.357 0 0 1 2.953-1.227c.015 0 .03-.016.045-.016a8.338 8.338 0 0 1 4.257-.06c1.394.403 2.753.926 4.061 1.564a37.73 37.73 0 0 0 8.619 2.561c.253.047.508.077.764.092 2.582.316 5.2.081 7.69-.69a19.047 19.047 0 0 0 4.495-2.04z"/>
        <path fill="#252B58" d="M66.02 54.977v.845c0 4.323-3.36 7.828-7.503 7.828l1.501 3.13H37.511l3.001-3.13c-4.144 0-7.502-3.505-7.502-7.828v-2.52a2.56 2.56 0 0 0 1.966.58 8.564 8.564 0 0 0 2.625-1.175 20.166 20.166 0 0 1 2.956-1.252c.015 0 .03-.016.045-.016 1.309.416 2.588.928 3.826 1.534a37.234 37.234 0 0 0 8.627 2.614c1.744.282 3.516.314 5.267.094a18.1 18.1 0 0 0 7.698-.704z"/>
        <path fill="#0D3999" d="M52.637 20.305c-.012 1.739-1.357 3.145-3.02 3.158H16.403c-1.666-.005-3.015-1.416-3.02-3.158.013-1.74 1.358-3.146 3.02-3.159h33.216c1.665.005 3.014 1.417 3.02 3.159z"/>
        <path fill="#2F70FF" d="M48.176 20.305c-.011 1.739-1.359 3.145-3.025 3.158H16.408c-1.669-.005-3.02-1.416-3.026-3.158.013-1.74 1.36-3.146 3.026-3.159H45.15c1.669.005 3.02 1.417 3.025 3.159z"/>
        <path fill="#032354" d="M86.863 46.22a4.398 4.398 0 0 0-3.55.478A4.992 4.992 0 0 0 81.15 49.3l-4.541 12.64a1.526 1.526 0 0 1-1.433 1.017H16.667a1.526 1.526 0 0 1-1.432-1.016l-4.632-12.872a4.6 4.6 0 0 0-2.47-2.66 4.525 4.525 0 0 0-3.61-.02 2.587 2.587 0 0 0-.502.262c-1.931 1.223-2.736 3.656-1.92 5.805l6.003 16.706a4.574 4.574 0 0 0 4.297 3.033h67.042a4.572 4.572 0 0 0 4.296-3.033l6.096-16.937a4.676 4.676 0 0 0-.21-3.646 4.597 4.597 0 0 0-2.762-2.358z"/>
        <path fill="#003FA3" d="M84.482 52.225l-6.038 16.937c-.653 1.823-2.354 3.035-4.257 3.033H12.302c-1.903.002-3.603-1.21-4.257-3.033L2.098 52.456c-.809-2.15-.011-4.582 1.902-5.805.156-.105.323-.193.498-.261a4.444 4.444 0 0 1 3.575.02 4.583 4.583 0 0 1 2.448 2.659l4.588 12.872c.216.61.784 1.015 1.419 1.016h57.961c.636 0 1.203-.407 1.42-1.016l4.497-12.64a4.981 4.981 0 0 1 2.144-2.603c1.863 1.129 2.674 3.45 1.932 5.527z"/>
        <path fill="#000" d="M86.697 44.979c-3.174-.91-6.493.863-7.556 4.036l-4.526 12.652h-4.157a9.288 9.288 0 0 0 2.337-6.167v-3.083c-.005-5.107-4.078-9.245-9.104-9.25h-13.88l1.636-18.75c2.126-.701 3.434-2.87 3.082-5.113-.352-2.243-2.258-3.892-4.494-3.887h-.077c-.464-5.132-3.2-9.772-7.435-12.608-.013-.01-.02-.028-.037-.039-.017-.01-.05-.017-.075-.03a16.367 16.367 0 0 0-18.13 0c-.022.013-.05.015-.072.03-.023.015-.025.028-.039.039-4.236 2.835-6.972 7.475-7.437 12.608h-.078c-2.235-.005-4.141 1.644-4.493 3.887-.352 2.242.956 4.412 3.083 5.113l3.242 37.25h-2.135l-4.613-12.898a6.154 6.154 0 0 0-3.278-3.546 5.948 5.948 0 0 0-4.798-.023C.653 46.573-.772 50.1.421 53.226l5.98 16.715c.877 2.433 3.153 4.053 5.703 4.059h66.76c2.55-.004 4.827-1.625 5.703-4.059l6.07-16.958a6.277 6.277 0 0 0-.274-4.861 6.039 6.039 0 0 0-3.666-3.143zM46.442 61.366h-5.597c-3.342 0-6.05-2.692-6.05-6.014v-.355c.22.012.44.006.66-.017a7.558 7.558 0 0 0 2.619-.997c.174-.095.347-.188.49-.262a19.48 19.48 0 0 1 2.768-1.123 7.073 7.073 0 0 1 3.58-.051c.931.242 1.837.57 2.707.981.38.164.756.33 1.15.486a40.361 40.361 0 0 0 9.04 2.604c1.06.157 2.13.237 3.203.238 2.958 0 5.882-.628 8.576-1.842v.338c0 3.322-2.709 6.014-6.05 6.014H46.441zm23.146-9.556c-3.45 2.01-7.42 2.753-11.302 2.113a35.523 35.523 0 0 1-8.379-2.614l-1.077-.487a16.814 16.814 0 0 0-3.29-1.26 9.369 9.369 0 0 0-5.103.124c-1.114.378-2.198.85-3.244 1.41-.197.108-.396.224-.594.34a5.09 5.09 0 0 1-1.554.71 1.182 1.182 0 0 1-.25-.02c.19-3.421 2.832-6.093 6.031-6.102h22.76c3.085.01 5.67 2.502 6.002 5.786zM18.735 24.366H49.07l-.508 6.07a25.901 25.901 0 0 0-7.005-1.2c-2.6-.06-5.176.544-7.51 1.762a12.474 12.474 0 0 1-6.267 1.484 12.492 12.492 0 0 1-6.267-1.48c-.75-.37-1.52-.695-2.304-.974l-.473-5.662zm20.52-20.472c-1.714 1.029-3.739 1.559-5.8 1.519-2.06.04-4.085-.49-5.798-1.52a14.765 14.765 0 0 1 11.598 0zM24.598 6.317a12.079 12.079 0 0 0 8.412 3.031 12.08 12.08 0 0 0 8.411-3.023 13.473 13.473 0 0 1 4.971 9.016H19.627a13.476 13.476 0 0 1 4.971-9.016v-.008zM16.69 18.05h33.531c.842 0 1.524.606 1.524 1.354 0 .747-.682 1.353-1.524 1.353h-33.53c-.842 0-1.524-.606-1.524-1.353 0-.748.682-1.354 1.523-1.354zm2.045 15.508c.251.106.504.208.76.32a16.05 16.05 0 0 0 7.44 1.655c2.58.056 5.136-.51 7.45-1.65a12.98 12.98 0 0 1 6.218-1.39c2.27.086 4.517.48 6.681 1.17l-.844 9.469h-5.837c-5.03.004-9.106 4.084-9.111 9.117v3.04a9.07 9.07 0 0 0 2.338 6.078H21.188l-2.453-27.81zm68.51 18.473l-6.057 17.206c-.438 1.233-1.573 2.054-2.845 2.057H11.718c-1.273-.003-2.408-.824-2.845-2.059l-5.97-16.959c-.617-1.607.067-3.435 1.57-4.194.376-.164.78-.25 1.187-.252.418.001.83.09 1.212.262.763.34 1.355.991 1.635 1.798l4.607 13.087c.437 1.234 1.571 2.056 2.843 2.06h58.146c1.273 0 2.41-.823 2.845-2.059l4.52-12.837c.53-1.638 2.187-2.584 3.811-2.175.797.25 1.46.827 1.833 1.596.372.77.421 1.664.136 2.471l-.003-.002z"/>
        <path fill="#000" d="M25.638 54.153c-.45.036-.866.228-1.155.534-.29.307-.429.702-.388 1.099l.155 1.502c.077.775.814 1.37 1.696 1.37h.155c.453-.034.87-.226 1.162-.534.29-.308.43-.705.386-1.104l-.155-1.502a1.452 1.452 0 0 0-.606-1.023 1.862 1.862 0 0 0-1.25-.342zM24.599 51.439c.37-.038.712-.24.95-.562.237-.321.352-.737.318-1.154l-.764-9.476c-.07-.87-.75-1.514-1.521-1.436-.772.078-1.341.846-1.272 1.717l.762 9.476c.066.815.674 1.439 1.4 1.435h.127z"/>
    </g>
</svg>
